# xmcd
#
# Track frame offsets:
#	150
#	11297
#	27627
#	49912
#	71005
#	85815
#	98690
#	118232
#	140997
#	162105
#	187075
#	201110
#	213560
#	234002
#	246447
#	261765
#	285155
#	300727
#
# Disc length: 4180 seconds
#
# Revision: 1
# Processed by: cddbd v1.5.2PL0 Copyright (c) Steve Scherf et al.
# Submitted via: audiograbber 1.83.01
#
DISCID=03105212
DTITLE=Delaney and Bonnie - The Best Of
DYEAR=90
DGENRE=Oldies
TTITLE0=Get Ourselves Together
TTITLE1=When The Battle Is Over
TTITLE2=Ghetto
TTITLE3=Piece Of My Heart
TTITLE4=Comin' Home
TTITLE5=Groupie
TTITLE6=Things Get Better
TTITLE7=Where There's A Will, There's A Way
TTITLE8=That's What My Man Is For
TTITLE9=I Don't Want To Discuss It
TTITLE10=Soul Shake
TTITLE11=Free The People
TTITLE12=The Love Of My Man
TTITLE13=Will The Circle Be Unbroken
TTITLE14=Never Ending Song Of Love
TTITLE15=Going Down The Road Feeling Bad
TTITLE16=Only You Know And I Know
TTITLE17=Move 'Em Out
EXTD=
EXTT0=
EXTT1=
EXTT2=
EXTT3=
EXTT4=
EXTT5=
EXTT6=
EXTT7=
EXTT8=
EXTT9=
EXTT10=
EXTT11=
EXTT12=
EXTT13=
EXTT14=
EXTT15=
EXTT16=
EXTT17=
PLAYORDER=
